<svg width="100" height="100" viewBox="0 0 100 100" fill="none" xmlns="http://www.w3.org/2000/svg">
<circle cx="50" cy="50" r="46.5" stroke="white" stroke-width="7"/>
<path d="M45.7671 60.1948V59.8953C45.8004 56.7171 46.1331 54.1879 46.7654 52.3076C47.3978 50.4274 48.2963 48.9048 49.4611 47.7401C50.6258 46.5753 52.0236 45.502 53.6542 44.5203C54.636 43.9213 55.5179 43.2141 56.2999 42.3987C57.082 41.5668 57.6977 40.61 58.1469 39.5284C58.6128 38.4468 58.8458 37.2488 58.8458 35.9343C58.8458 34.3036 58.4631 32.8892 57.6977 31.6912C56.9323 30.4931 55.9089 29.5696 54.6277 28.9207C53.3464 28.2717 51.9237 27.9472 50.3596 27.9472C48.9952 27.9472 47.6806 28.2301 46.416 28.7959C45.1514 29.3616 44.0948 30.2518 43.2462 31.4665C42.3976 32.6812 41.9067 34.2703 41.7736 36.2338H35.4838C35.6169 33.405 36.3491 30.984 37.6802 28.9706C39.028 26.9572 40.8001 25.418 42.9966 24.3531C45.2096 23.2881 47.664 22.7557 50.3596 22.7557C53.2882 22.7557 55.834 23.3381 57.9972 24.5028C60.177 25.6676 61.8576 27.265 63.039 29.295C64.237 31.3251 64.8361 33.638 64.8361 36.2338C64.8361 38.0641 64.5532 39.7198 63.9874 41.2007C63.4383 42.6816 62.6396 44.0045 61.5913 45.1692C60.5597 46.334 59.3117 47.3657 57.8474 48.2642C56.3831 49.1794 55.2101 50.1445 54.3282 51.1595C53.4463 52.1579 52.8056 53.3476 52.4063 54.7287C52.0069 56.1098 51.7906 57.832 51.7573 59.8953V60.1948H45.7671ZM48.9619 74.9708C47.7305 74.9708 46.6739 74.5298 45.792 73.6479C44.9101 72.766 44.4692 71.7094 44.4692 70.4781C44.4692 69.2468 44.9101 68.1901 45.792 67.3082C46.6739 66.4263 47.7305 65.9854 48.9619 65.9854C50.1932 65.9854 51.2498 66.4263 52.1317 67.3082C53.0136 68.1901 53.4546 69.2468 53.4546 70.4781C53.4546 71.2934 53.2466 72.0422 52.8306 72.7244C52.4312 73.4067 51.8904 73.9558 51.2082 74.3718C50.5426 74.7711 49.7939 74.9708 48.9619 74.9708Z" fill="white"/>
</svg>
